<svg width="66" height="67" viewBox="0 0 66 67" fill="none" xmlns="http://www.w3.org/2000/svg">
<path fill-rule="evenodd" clip-rule="evenodd" d="M0.283936 10.5841C0.283936 5.1765 4.66788 0.792969 10.0751 0.792969H16.0447C17.254 0.792969 18.2344 1.77335 18.2344 2.98271V5.13079C18.2344 6.34015 17.254 7.32053 16.0447 7.32053H10.0751C8.27267 7.32053 6.8115 8.78171 6.8115 10.5841V16.5537C6.8115 17.7631 5.83112 18.7434 4.62176 18.7434H2.47368C1.26432 18.7434 0.283936 17.7631 0.283936 16.5537V10.5841ZM55.7676 7.32053H49.798C48.5886 7.32053 47.6082 6.34015 47.6082 5.13079V2.98271C47.6082 1.77335 48.5886 0.792969 49.798 0.792969H55.7676C61.1752 0.792969 65.5587 5.1765 65.5587 10.5841V16.5537C65.5587 17.7631 64.5783 18.7434 63.369 18.7434H61.2209C60.0115 18.7434 59.0312 17.7631 59.0312 16.5537V10.5841C59.0312 8.78171 57.57 7.32053 55.7676 7.32053ZM4.62176 48.1173C5.83112 48.1173 6.8115 49.0976 6.8115 50.307V56.2766C6.8115 58.079 8.27267 59.5402 10.0751 59.5402H16.0447C17.254 59.5402 18.2344 60.5206 18.2344 61.7299V63.878C18.2344 65.0874 17.254 66.0677 16.0447 66.0677H10.0751C4.66788 66.0677 0.283936 61.6842 0.283936 56.2766V50.307C0.283936 49.0976 1.26432 48.1173 2.47367 48.1173H4.62176ZM59.0312 56.2766V50.307C59.0312 49.0976 60.0115 48.1173 61.2209 48.1173H63.369C64.5783 48.1173 65.5587 49.0976 65.5587 50.307V56.2766C65.5587 61.6842 61.1752 66.0677 55.7676 66.0677H49.798C48.5886 66.0677 47.6082 65.0874 47.6082 63.878V61.7299C47.6082 60.5206 48.5886 59.5402 49.798 59.5402H55.7676C57.57 59.5402 59.0312 58.079 59.0312 56.2766Z" fill="#6CABEE"/>
<path fill-rule="evenodd" clip-rule="evenodd" d="M16.6157 32.772C16.6157 31.3492 17.7691 30.1958 19.1919 30.1958H46.7027C48.1255 30.1958 49.2789 31.3492 49.2789 32.772V34.0699C49.2789 35.4927 48.1255 36.6461 46.7027 36.6461H19.1919C17.7691 36.6461 16.6157 35.4927 16.6157 34.0699V32.772Z" fill="#6CABEE"/>
</svg>
