<svg width="49" height="66" viewBox="0 0 49 66" fill="none" xmlns="http://www.w3.org/2000/svg">
<mask id="mask0_45_183" style="mask-type:luminance" maskUnits="userSpaceOnUse" x="0" y="0" width="49" height="66">
<path d="M0.191406 0.521484H48.9677V65.8158H0.191406V0.521484Z" fill="white"/>
</mask>
<g mask="url(#mask0_45_183)">
<path d="M48.9153 1.85978V56.8663C48.9153 56.9544 48.9065 57.0411 48.8894 57.1275C48.8718 57.2135 48.8463 57.2973 48.8124 57.3783C48.7785 57.4597 48.7371 57.5365 48.6878 57.6096C48.6384 57.6827 48.5828 57.7504 48.5201 57.8126C48.4578 57.8745 48.3896 57.9302 48.316 57.9787C48.2424 58.0277 48.1646 58.0688 48.0831 58.1025C48.0015 58.1365 47.917 58.1618 47.8305 58.1789C47.7435 58.1963 47.6561 58.205 47.5674 58.205H5.11059C5.02067 58.205 4.93076 58.2092 4.84126 58.2179C4.75135 58.227 4.66228 58.2399 4.57404 58.2574C4.4858 58.2748 4.39839 58.2964 4.31224 58.3225C4.22609 58.3487 4.1412 58.3786 4.05798 58.4131C3.97476 58.4471 3.89321 58.4853 3.81375 58.5277C3.73429 58.5696 3.65734 58.6157 3.58248 58.6651C3.50763 58.7149 3.43528 58.7681 3.36544 58.825C3.29602 58.8819 3.22911 58.9417 3.16554 59.0052C3.10197 59.0683 3.04133 59.1347 2.98404 59.2037C2.92717 59.273 2.87364 59.3448 2.82345 59.4192C2.77327 59.4935 2.72685 59.5699 2.68461 59.6492C2.64195 59.7281 2.60348 59.8087 2.56919 59.8913C2.53448 59.9739 2.50437 60.0582 2.47802 60.1437C2.45209 60.2293 2.43035 60.3161 2.41278 60.4037C2.39522 60.4917 2.38183 60.5802 2.37305 60.669C2.36427 60.7583 2.35967 60.8472 2.35967 60.9368C2.35967 61.0261 2.36427 61.1154 2.37305 61.2047C2.38183 61.2935 2.39522 61.382 2.41278 61.47C2.43035 61.5576 2.45209 61.6444 2.47802 61.7299C2.50437 61.8155 2.53448 61.8998 2.56919 61.9824C2.60348 62.065 2.64195 62.1456 2.68461 62.2245C2.72685 62.3034 2.77327 62.3802 2.82345 62.4545C2.87364 62.5288 2.92717 62.6007 2.98404 62.67C3.04133 62.7389 3.10197 62.8054 3.16554 62.8685C3.22911 62.932 3.29602 62.9918 3.36544 63.0487C3.43528 63.1052 3.50763 63.1587 3.58248 63.2082C3.65734 63.258 3.73429 63.3041 3.81375 63.346C3.89321 63.3884 3.97476 63.4266 4.05798 63.4606C4.1412 63.4951 4.22609 63.525 4.31224 63.5511C4.39839 63.5769 4.4858 63.5989 4.57404 63.6163C4.66228 63.6338 4.75135 63.6466 4.84126 63.6558C4.93076 63.6645 5.02067 63.6687 5.11059 63.6687H46.501C46.5721 63.6687 46.6424 63.6757 46.7118 63.6894C46.7816 63.7031 46.849 63.7235 46.9146 63.7505C46.9803 63.7774 47.0426 63.8107 47.1016 63.8497C47.1605 63.8887 47.2153 63.9332 47.2655 63.983C47.3157 64.0328 47.3604 64.0872 47.3997 64.1458C47.439 64.2043 47.4725 64.2662 47.4997 64.3314C47.5269 64.3966 47.5474 64.4638 47.5612 64.5327C47.575 64.6021 47.5821 64.6719 47.5821 64.742C47.5821 64.8126 47.575 64.8824 47.5612 64.9517C47.5474 65.0206 47.5269 65.0879 47.4997 65.1531C47.4725 65.2179 47.439 65.2797 47.3997 65.3387C47.3604 65.3973 47.3157 65.4512 47.2655 65.5011C47.2153 65.5509 47.1605 65.5957 47.1016 65.6348C47.0426 65.6738 46.9803 65.707 46.9146 65.734C46.849 65.761 46.7816 65.7813 46.7118 65.7951C46.6424 65.8088 46.5721 65.8158 46.501 65.8158H5.11059C4.88768 65.8154 4.66604 65.8005 4.44481 65.7701C4.224 65.7402 4.00654 65.6954 3.79158 65.636C3.57705 65.5762 3.36711 65.5027 3.16261 65.4147C2.95811 65.3271 2.76031 65.2258 2.56961 65.1112C2.37891 64.9966 2.19657 64.8699 2.02302 64.7308C1.84989 64.5917 1.68679 64.4414 1.53373 64.2803C1.38108 64.1192 1.23973 63.9485 1.11051 63.7683C0.980867 63.5881 0.864608 63.4 0.760894 63.204C0.675582 63.1575 0.597797 63.101 0.527957 63.0342C0.458118 62.9673 0.398316 62.8922 0.348968 62.8091C0.299202 62.7261 0.261564 62.6385 0.236054 62.545C0.210544 62.452 0.197998 62.3573 0.197998 62.261V6.36005C0.197998 6.16863 0.207617 5.97804 0.226854 5.78787C0.246091 5.59769 0.27411 5.40876 0.312166 5.22149C0.349804 5.03381 0.396643 4.84861 0.452681 4.66591C0.50872 4.48279 0.573541 4.303 0.647144 4.12652C0.721165 3.95005 0.803132 3.77731 0.893882 3.60873C0.985049 3.44015 1.08374 3.27655 1.1908 3.11751C1.29786 2.95889 1.41245 2.80526 1.53456 2.65785C1.65668 2.51003 1.7859 2.36843 1.92182 2.23348C2.05815 2.09812 2.20034 1.96981 2.34922 1.84856C2.49809 1.72732 2.65241 1.61354 2.81258 1.50724C2.97233 1.40094 3.1371 1.30295 3.30689 1.21243C3.47668 1.12232 3.65065 1.04052 3.82839 0.967443C4.00612 0.894362 4.1872 0.829586 4.37121 0.77436C4.55563 0.718719 4.74173 0.672213 4.93076 0.634427C5.11937 0.597057 5.30965 0.568821 5.50118 0.550135C5.69272 0.531035 5.88467 0.521484 6.07704 0.521484H47.5674C47.6561 0.521484 47.7435 0.530204 47.8305 0.547229C47.917 0.564253 48.0015 0.589998 48.0831 0.623631C48.1646 0.657265 48.2424 0.698373 48.316 0.74737C48.3896 0.795952 48.4578 0.851593 48.5201 0.913878C48.5828 0.975748 48.6384 1.04343 48.6878 1.11651C48.7371 1.18959 48.7785 1.26682 48.8124 1.3478C48.8463 1.42877 48.8718 1.51264 48.8894 1.5986C48.9065 1.68496 48.9153 1.77216 48.9153 1.85978Z" fill="#218135"/>
</g>
</svg>
