<svg width="65" height="65" viewBox="0 0 65 65" fill="none" xmlns="http://www.w3.org/2000/svg">
<path d="M62.4431 10.0177L54.3498 1.86174C54.0613 1.57276 53.7475 1.31469 53.4083 1.08795C53.0686 0.861212 52.7103 0.669516 52.3327 0.513685C51.9555 0.357855 51.5663 0.240776 51.166 0.162036C50.7653 0.0832962 50.3609 0.0445446 49.9524 0.0461936C49.5442 0.0445446 49.1398 0.0828838 48.7391 0.161624C48.3384 0.240363 47.9497 0.357442 47.5724 0.513273C47.1948 0.669104 46.8366 0.860388 46.4973 1.08754C46.158 1.31428 45.8443 1.57276 45.5561 1.86174L5.82428 41.5833C5.62434 41.7832 5.48871 42.0194 5.41739 42.2932L0.199126 62.3463C0.181812 62.4118 0.169032 62.4786 0.160787 62.5462C0.152542 62.6134 0.14842 62.6814 0.148832 62.7494C0.149244 62.8171 0.154191 62.8851 0.163261 62.9523C0.17233 63.0195 0.185934 63.0858 0.204073 63.1518C0.2218 63.2174 0.244062 63.2812 0.270446 63.3439C0.29683 63.4066 0.326924 63.4672 0.361141 63.5261C0.395357 63.5847 0.433285 63.6411 0.474922 63.6947C0.516559 63.7487 0.561494 63.7994 0.609728 63.8473C0.657961 63.8951 0.70908 63.9396 0.763085 63.9808C0.817502 64.0221 0.87398 64.0596 0.932932 64.0934C0.991884 64.1272 1.05248 64.1573 1.11556 64.1833C1.17822 64.2088 1.24253 64.2307 1.30849 64.248C1.37404 64.2657 1.44041 64.2789 1.50802 64.2876C1.57563 64.2962 1.64324 64.3007 1.71126 64.3007C1.77928 64.3003 1.84689 64.2958 1.91409 64.2871C1.9817 64.2781 2.04807 64.2649 2.11362 64.2471L22.0443 58.906C22.3139 58.8347 22.5476 58.7003 22.7447 58.5024L62.439 18.8089C62.5825 18.6651 62.7185 18.5142 62.8471 18.3563C62.9762 18.1988 63.097 18.0356 63.2095 17.8661C63.3221 17.6967 63.4264 17.5223 63.522 17.3426C63.6176 17.1628 63.7042 16.9794 63.7821 16.791C63.8596 16.603 63.9277 16.4117 63.9866 16.2167C64.0456 16.0221 64.095 15.8251 64.1346 15.6255C64.1742 15.4256 64.2039 15.2248 64.2236 15.0224C64.2434 14.8196 64.2533 14.6168 64.2533 14.4135C64.2533 14.2099 64.2434 14.007 64.2236 13.8042C64.2039 13.6018 64.1742 13.401 64.1346 13.2015C64.095 13.0016 64.0456 12.8045 63.9866 12.6099C63.9277 12.4149 63.8596 12.2237 63.7821 12.0357C63.7042 11.8477 63.6176 11.6638 63.522 11.4841C63.4264 11.3043 63.3221 11.13 63.2095 10.9605C63.097 10.7911 62.9762 10.6278 62.8471 10.4704C62.7185 10.3129 62.5825 10.162 62.439 10.0177M40.314 11.5096L45.4419 16.6376L14.2663 47.8173L9.13547 42.6873L40.314 11.5096ZM7.57882 59.5512L4.85962 56.8324L7.75238 45.7186L18.6259 56.5908L7.57882 59.5512ZM21.6407 55.1945L16.4731 50.0274L47.6541 18.8444L52.8212 24.0119L21.6407 55.1945ZM60.2318 16.6009L55.0292 21.8039L42.5273 9.30698L47.7621 4.07305C47.9055 3.92877 48.0618 3.80014 48.2304 3.68677C48.3994 3.57382 48.5779 3.47818 48.7659 3.40067C48.9539 3.32276 49.1477 3.26422 49.3472 3.22505C49.5467 3.18589 49.7479 3.16693 49.9515 3.16775C50.1544 3.16652 50.3551 3.18548 50.5538 3.22423C50.753 3.26298 50.9463 3.32111 51.1339 3.3982C51.3215 3.47529 51.4995 3.57011 51.6682 3.68224C51.8372 3.79478 51.993 3.92258 52.1365 4.06563L60.2318 12.2204C60.3031 12.2925 60.3712 12.3675 60.4351 12.4463C60.499 12.5246 60.5592 12.6062 60.6152 12.6903C60.6713 12.7748 60.7228 12.8618 60.7706 12.9513C60.818 13.0407 60.8609 13.1323 60.8997 13.2262C60.9384 13.3198 60.9722 13.4151 61.0015 13.5119C61.0308 13.6092 61.0551 13.7073 61.0749 13.8067C61.0947 13.906 61.1091 14.0062 61.119 14.1068C61.1289 14.2078 61.1338 14.3088 61.1338 14.4102C61.1338 14.5116 61.1289 14.6126 61.119 14.7132C61.1091 14.8142 61.0947 14.9144 61.0749 15.0138C61.0551 15.1131 61.0308 15.2112 61.0015 15.3085C60.9722 15.4054 60.9384 15.5006 60.8997 15.5942C60.8609 15.6882 60.818 15.7797 60.7706 15.8692C60.7228 15.9586 60.6713 16.0456 60.6152 16.1297C60.5592 16.2142 60.499 16.2959 60.4351 16.3742C60.3712 16.4529 60.3031 16.528 60.2318 16.6001" fill="#F8836C"/>
</svg>
